<?xml version="1.0" standalone="no"?>
<!DOCTYPE svg PUBLIC "-//W3C//DTD SVG 20010904//EN"
 "http://www.w3.org/TR/2001/REC-SVG-20010904/DTD/svg10.dtd">
<svg version="1.0" xmlns="http://www.w3.org/2000/svg"
 width="204.000000pt" height="204.000000pt" viewBox="0 0 204.000000 204.000000"
 preserveAspectRatio="xMidYMid meet">
<metadata>
Created by potrace 1.14, written by Peter Selinger 2001-2017
</metadata>
<g transform="translate(0.000000,204.000000) scale(0.100000,-0.100000)"
fill="#000000" stroke="none">
<path d="M877 1899 c-83 -12 -214 -60 -304 -110 -110 -62 -252 -206 -316 -319
-86 -154 -124 -314 -114 -485 8 -124 28 -206 78 -313 109 -236 301 -401 556
-479 77 -23 106 -26 233 -27 166 -1 242 16 385 83 319 151 518 496 490 851
-42 515 -495 874 -1008 799z"/>
</g>
</svg>
